{
	"asset":{
		"generator":"Khronos glTF Blender I/O v5.2.40",
		"version":"2.0"
	},
	"scene":0,
	"scenes":[
		{
			"name":"Scene",
			"nodes":[
				34
			]
		}
	],
	"nodes":[
		{
			"name":"DEF-pelvis.L",
			"rotation":[
				-0.0863676518201828,
				-0.7511041760444641,
				-0.38305163383483887,
				0.5307114720344543
			],
			"scale":[
				0.9999999403953552,
				1,
				0.9999999403953552
			],
			"translation":[
				0,
				30.609214782714844,
				-1.6730653047561646
			]
		},
		{
			"name":"DEF-pelvis.R",
			"rotation":[
				-0.0863676518201828,
				0.7511041760444641,
				0.38305163383483887,
				0.5307114720344543
			],
			"scale":[
				0.9999999403953552,
				1,
				0.9999999403953552
			],
			"translation":[
				0,
				30.609214782714844,
				-1.6730653047561646
			]
		},
		{
			"name":"DEF-shoulder.L",
			"rotation":[
				-0.6139809489250183,
				-0.3509133458137512,
				-0.3511587083339691,
				0.6136569380760193
			],
			"scale":[
				1,
				0.9999999403953552,
				1
			],
			"translation":[
				0.554657518863678,
				48.64922332763672,
				2.073146343231201
			]
		},
		{
			"name":"DEF-shoulder.R",
			"rotation":[
				-0.6139809489250183,
				0.3509133458137512,
				0.3511587083339691,
				0.6136569380760193
			],
			"scale":[
				1,
				0.9999999403953552,
				1
			],
			"translation":[
				-0.554657518863678,
				48.64922332763672,
				2.073146343231201
			]
		},
		{
			"name":"DEF-spine.006",
			"rotation":[
				-0.09371200203895569,
				0,
				0,
				0.9955993890762329
			],
			"translation":[
				0,
				1.9004218578338623,
				1.7881393432617188e-07
			]
		},
		{
			"children":[
				4
			],
			"name":"DEF-spine.005",
			"rotation":[
				-0.09485728293657303,
				0,
				0,
				0.9954908490180969
			],
			"translation":[
				0,
				2.0053577423095703,
				1.430511474609375e-06
			]
		},
		{
			"children":[
				5
			],
			"name":"DEF-spine.004",
			"rotation":[
				0.20173762738704681,
				0,
				0,
				0.9794396162033081
			],
			"scale":[
				1,
				0.9999999403953552,
				0.9999999403953552
			],
			"translation":[
				0,
				5.836890697479248,
				-5.960464477539063e-08
			]
		},
		{
			"children":[
				6
			],
			"name":"DEF-spine.003",
			"rotation":[
				0.0016271470813080668,
				0,
				0,
				0.9999986886978149
			],
			"scale":[
				1,
				0.9999999403953552,
				1
			],
			"translation":[
				0,
				5.24007511138916,
				1.4901161193847656e-08
			]
		},
		{
			"children":[
				7
			],
			"name":"DEF-spine.002",
			"rotation":[
				-0.07746414840221405,
				0,
				0,
				0.9969951510429382
			],
			"scale":[
				1,
				0.9999999403953552,
				0.9999999403953552
			],
			"translation":[
				0,
				4.141343116760254,
				3.175809979438782e-07
			]
		},
		{
			"children":[
				8
			],
			"name":"DEF-spine.001",
			"rotation":[
				-0.064476378262043,
				0,
				0,
				0.9979192614555359
			],
			"scale":[
				1,
				0.9999999403953552,
				0.9999999403953552
			],
			"translation":[
				0,
				4.613644599914551,
				2.980232238769531e-07
			]
		},
		{
			"children":[
				9
			],
			"name":"DEF-spine",
			"rotation":[
				0.1258196234703064,
				0,
				0,
				0.9920531511306763
			],
			"translation":[
				0,
				30.609214782714844,
				-1.6730653047561646
			]
		},
		{
			"name":"DEF-toe.L",
			"rotation":[
				0.00019910572154913098,
				-0.961248517036438,
				0.2756825387477875,
				0.0006941428291611373
			],
			"scale":[
				1,
				1.0000001192092896,
				0.9999999403953552
			],
			"translation":[
				3.466266207396984e-07,
				3.917323350906372,
				-2.6542693376541138e-08
			]
		},
		{
			"children":[
				11
			],
			"name":"DEF-foot.L",
			"rotation":[
				-0.5273635387420654,
				-0.0005336721078492701,
				0.0004304546455387026,
				0.8496394753456116
			],
			"scale":[
				1,
				0.9999999403953552,
				1
			],
			"translation":[
				-1.1708470992743969e-07,
				6.8834333419799805,
				-4.708999767899513e-08
			]
		},
		{
			"children":[
				12
			],
			"name":"DEF-shin.L.001",
			"rotation":[
				-7.450580596923828e-09,
				7.361222742474638e-12,
				1.0782622624633253e-12,
				1
			],
			"scale":[
				1,
				1,
				0.9999999403953552
			],
			"translation":[
				-1.1704105418175459e-07,
				6.883432388305664,
				-2.444721758365631e-09
			]
		},
		{
			"children":[
				13
			],
			"name":"DEF-shin.L",
			"rotation":[
				0.08754125237464905,
				-9.370037150802091e-05,
				-8.234259439632297e-06,
				0.9961608648300171
			],
			"scale":[
				1,
				0.9999999403953552,
				1
			],
			"translation":[
				0,
				8.12845230102539,
				1.1920928955078125e-07
			]
		},
		{
			"children":[
				14
			],
			"name":"DEF-thigh.L.001",
			"translation":[
				0,
				8.128450393676758,
				4.470348358154297e-08
			]
		},
		{
			"children":[
				15
			],
			"name":"DEF-thigh.L",
			"rotation":[
				0.9992682933807373,
				0,
				0,
				0.03824789077043533
			],
			"scale":[
				1,
				0.9999999403953552,
				0.9999999403953552
			],
			"translation":[
				2.97029709815979,
				32.49141311645508,
				-0.3758336305618286
			]
		},
		{
			"name":"DEF-toe.R",
			"rotation":[
				0.00019910572154913098,
				-0.961248517036438,
				0.2756825387477875,
				0.0006941428291611373
			],
			"scale":[
				1,
				1.0000001192092896,
				0.9999999403953552
			],
			"translation":[
				-1.302105374634266e-07,
				3.917323350906372,
				8.614733815193176e-08
			]
		},
		{
			"children":[
				17
			],
			"name":"DEF-foot.R",
			"rotation":[
				-0.5273635387420654,
				-0.0005336721078492701,
				0.0004304546455387026,
				0.8496394753456116
			],
			"scale":[
				1,
				0.9999999403953552,
				1
			],
			"translation":[
				-1.1708470992743969e-07,
				6.883434295654297,
				-7.211929187178612e-08
			]
		},
		{
			"children":[
				18
			],
			"name":"DEF-shin.R.001",
			"rotation":[
				-7.450580596923828e-09,
				7.361222742474638e-12,
				1.0782622624633253e-12,
				1
			],
			"scale":[
				1,
				1,
				0.9999999403953552
			],
			"translation":[
				-1.1704105418175459e-07,
				6.883434295654297,
				-2.735760062932968e-08
			]
		},
		{
			"children":[
				19
			],
			"name":"DEF-shin.R",
			"rotation":[
				0.08754125237464905,
				-9.370037150802091e-05,
				-8.234259439632297e-06,
				0.9961608648300171
			],
			"scale":[
				1,
				0.9999999403953552,
				1
			],
			"translation":[
				0,
				8.12845230102539,
				1.1920928955078125e-07
			]
		},
		{
			"children":[
				20
			],
			"name":"DEF-thigh.R.001",
			"translation":[
				0,
				8.128450393676758,
				4.470348358154297e-08
			]
		},
		{
			"children":[
				21
			],
			"name":"DEF-thigh.R",
			"rotation":[
				0.9992682933807373,
				0,
				0,
				0.03824789077043533
			],
			"scale":[
				1,
				0.9999999403953552,
				0.9999999403953552
			],
			"translation":[
				-2.97029709815979,
				32.49141311645508,
				-0.3758336305618286
			]
		},
		{
			"name":"DEF-hand.L",
			"rotation":[
				-0.018265748396515846,
				-0.0006021969020366669,
				-0.03298715502023697,
				0.9992886781692505
			],
			"scale":[
				0.9999999403953552,
				0.9999998211860657,
				1
			],
			"translation":[
				3.159046173095703e-06,
				3.9831631183624268,
				-5.960464477539062e-07
			]
		},
		{
			"children":[
				23
			],
			"name":"DEF-forearm.L.001",
			"rotation":[
				4.7497451305389404e-08,
				0,
				6.146728992462158e-08,
				1
			],
			"scale":[
				1,
				1,
				1.0000001192092896
			],
			"translation":[
				8.493661880493164e-06,
				3.9831624031066895,
				4.76837158203125e-07
			]
		},
		{
			"children":[
				24
			],
			"name":"DEF-forearm.L",
			"rotation":[
				0.186270609498024,
				-3.128110961370112e-07,
				-2.900611946188292e-07,
				0.9824985265731812
			],
			"translation":[
				-1.7881393432617188e-06,
				4.3722453117370605,
				-5.960464477539062e-07
			]
		},
		{
			"children":[
				25
			],
			"name":"DEF-upper_arm.L.001",
			"rotation":[
				-2.2351741790771484e-08,
				7.636845111846924e-08,
				9.499490261077881e-08,
				1
			],
			"scale":[
				0.9999999403953552,
				1,
				1
			],
			"translation":[
				2.1457672119140625e-06,
				4.3722453117370605,
				-3.5762786865234375e-07
			]
		},
		{
			"children":[
				26
			],
			"name":"DEF-upper_arm.L",
			"rotation":[
				0.03960253670811653,
				0.14788685739040375,
				-0.8563054203987122,
				0.49325671792030334
			],
			"scale":[
				1,
				0.9999999403953552,
				1
			],
			"translation":[
				5.91937780380249,
				48.02788543701172,
				-0.8092544078826904
			]
		},
		{
			"name":"DEF-hand.R",
			"rotation":[
				-0.018265748396515846,
				0.0006021969020366669,
				0.03298715502023697,
				0.9992886781692505
			],
			"scale":[
				0.9999999403953552,
				0.9999998211860657,
				1
			],
			"translation":[
				-3.159046173095703e-06,
				3.9831631183624268,
				-5.960464477539062e-07
			]
		},
		{
			"children":[
				28
			],
			"name":"DEF-forearm.R.001",
			"rotation":[
				4.7497451305389404e-08,
				0,
				-6.146728992462158e-08,
				1
			],
			"scale":[
				1,
				1,
				1.0000001192092896
			],
			"translation":[
				-8.493661880493164e-06,
				3.9831624031066895,
				4.76837158203125e-07
			]
		},
		{
			"children":[
				29
			],
			"name":"DEF-forearm.R",
			"rotation":[
				0.186270609498024,
				3.128110961370112e-07,
				2.900611946188292e-07,
				0.9824985265731812
			],
			"translation":[
				1.7881393432617188e-06,
				4.3722453117370605,
				-5.960464477539062e-07
			]
		},
		{
			"children":[
				30
			],
			"name":"DEF-upper_arm.R.001",
			"rotation":[
				-2.2351741790771484e-08,
				-7.636845111846924e-08,
				-9.499490261077881e-08,
				1
			],
			"scale":[
				0.9999999403953552,
				1,
				1
			],
			"translation":[
				-2.1457672119140625e-06,
				4.3722453117370605,
				-3.5762786865234375e-07
			]
		},
		{
			"children":[
				31
			],
			"name":"DEF-upper_arm.R",
			"rotation":[
				0.03960253670811653,
				-0.14788685739040375,
				0.8563054203987122,
				0.49325671792030334
			],
			"scale":[
				1,
				0.9999999403953552,
				1
			],
			"translation":[
				-5.91937780380249,
				48.02788543701172,
				-0.8092544078826904
			]
		},
		{
			"mesh":0,
			"name":"fighter_a_body",
			"skin":0
		},
		{
			"children":[
				33,
				0,
				1,
				2,
				3,
				10,
				16,
				22,
				27,
				32
			],
			"name":"fighter_a_rig"
		}
	],
	"animations":[
		{
			"channels":[
				{
					"sampler":0,
					"target":{
						"node":0,
						"path":"translation"
					}
				},
				{
					"sampler":1,
					"target":{
						"node":0,
						"path":"rotation"
					}
				},
				{
					"sampler":2,
					"target":{
						"node":0,
						"path":"scale"
					}
				},
				{
					"sampler":3,
					"target":{
						"node":1,
						"path":"translation"
					}
				},
				{
					"sampler":4,
					"target":{
						"node":1,
						"path":"rotation"
					}
				},
				{
					"sampler":5,
					"target":{
						"node":1,
						"path":"scale"
					}
				},
				{
					"sampler":6,
					"target":{
						"node":2,
						"path":"translation"
					}
				},
				{
					"sampler":7,
					"target":{
						"node":2,
						"path":"rotation"
					}
				},
				{
					"sampler":8,
					"target":{
						"node":2,
						"path":"scale"
					}
				},
				{
					"sampler":9,
					"target":{
						"node":3,
						"path":"translation"
					}
				},
				{
					"sampler":10,
					"target":{
						"node":3,
						"path":"rotation"
					}
				},
				{
					"sampler":11,
					"target":{
						"node":3,
						"path":"scale"
					}
				},
				{
					"sampler":12,
					"target":{
						"node":10,
						"path":"translation"
					}
				},
				{
					"sampler":13,
					"target":{
						"node":10,
						"path":"rotation"
					}
				},
				{
					"sampler":14,
					"target":{
						"node":10,
						"path":"scale"
					}
				},
				{
					"sampler":15,
					"target":{
						"node":9,
						"path":"translation"
					}
				},
				{
					"sampler":16,
					"target":{
						"node":9,
						"path":"rotation"
					}
				},
				{
					"sampler":17,
					"target":{
						"node":9,
						"path":"scale"
					}
				},
				{
					"sampler":18,
					"target":{
						"node":8,
						"path":"translation"
					}
				},
				{
					"sampler":19,
					"target":{
						"node":8,
						"path":"rotation"
					}
				},
				{
					"sampler":20,
					"target":{
						"node":8,
						"path":"scale"
					}
				},
				{
					"sampler":21,
					"target":{
						"node":7,
						"path":"translation"
					}
				},
				{
					"sampler":22,
					"target":{
						"node":7,
						"path":"rotation"
					}
				},
				{
					"sampler":23,
					"target":{
						"node":7,
						"path":"scale"
					}
				},
				{
					"sampler":24,
					"target":{
						"node":6,
						"path":"translation"
					}
				},
				{
					"sampler":25,
					"target":{
						"node":6,
						"path":"rotation"
					}
				},
				{
					"sampler":26,
					"target":{
						"node":6,
						"path":"scale"
					}
				},
				{
					"sampler":27,
					"target":{
						"node":5,
						"path":"translation"
					}
				},
				{
					"sampler":28,
					"target":{
						"node":5,
						"path":"rotation"
					}
				},
				{
					"sampler":29,
					"target":{
						"node":5,
						"path":"scale"
					}
				},
				{
					"sampler":30,
					"target":{
						"node":4,
						"path":"translation"
					}
				},
				{
					"sampler":31,
					"target":{
						"node":4,
						"path":"rotation"
					}
				},
				{
					"sampler":32,
					"target":{
						"node":4,
						"path":"scale"
					}
				},
				{
					"sampler":33,
					"target":{
						"node":16,
						"path":"translation"
					}
				},
				{
					"sampler":34,
					"target":{
						"node":16,
						"path":"rotation"
					}
				},
				{
					"sampler":35,
					"target":{
						"node":16,
						"path":"scale"
					}
				},
				{
					"sampler":36,
					"target":{
						"node":15,
						"path":"translation"
					}
				},
				{
					"sampler":37,
					"target":{
						"node":15,
						"path":"rotation"
					}
				},
				{
					"sampler":38,
					"target":{
						"node":15,
						"path":"scale"
					}
				},
				{
					"sampler":39,
					"target":{
						"node":14,
						"path":"translation"
					}
				},
				{
					"sampler":40,
					"target":{
						"node":14,
						"path":"rotation"
					}
				},
				{
					"sampler":41,
					"target":{
						"node":14,
						"path":"scale"
					}
				},
				{
					"sampler":42,
					"target":{
						"node":13,
						"path":"translation"
					}
				},
				{
					"sampler":43,
					"target":{
						"node":13,
						"path":"rotation"
					}
				},
				{
					"sampler":44,
					"target":{
						"node":13,
						"path":"scale"
					}
				},
				{
					"sampler":45,
					"target":{
						"node":12,
						"path":"translation"
					}
				},
				{
					"sampler":46,
					"target":{
						"node":12,
						"path":"rotation"
					}
				},
				{
					"sampler":47,
					"target":{
						"node":12,
						"path":"scale"
					}
				},
				{
					"sampler":48,
					"target":{
						"node":11,
						"path":"translation"
					}
				},
				{
					"sampler":49,
					"target":{
						"node":11,
						"path":"rotation"
					}
				},
				{
					"sampler":50,
					"target":{
						"node":11,
						"path":"scale"
					}
				},
				{
					"sampler":51,
					"target":{
						"node":22,
						"path":"translation"
					}
				},
				{
					"sampler":52,
					"target":{
						"node":22,
						"path":"rotation"
					}
				},
				{
					"sampler":53,
					"target":{
						"node":22,
						"path":"scale"
					}
				},
				{
					"sampler":54,
					"target":{
						"node":21,
						"path":"translation"
					}
				},
				{
					"sampler":55,
					"target":{
						"node":21,
						"path":"rotation"
					}
				},
				{
					"sampler":56,
					"target":{
						"node":21,
						"path":"scale"
					}
				},
				{
					"sampler":57,
					"target":{
						"node":20,
						"path":"translation"
					}
				},
				{
					"sampler":58,
					"target":{
						"node":20,
						"path":"rotation"
					}
				},
				{
					"sampler":59,
					"target":{
						"node":20,
						"path":"scale"
					}
				},
				{
					"sampler":60,
					"target":{
						"node":19,
						"path":"translation"
					}
				},
				{
					"sampler":61,
					"target":{
						"node":19,
						"path":"rotation"
					}
				},
				{
					"sampler":62,
					"target":{
						"node":19,
						"path":"scale"
					}
				},
				{
					"sampler":63,
					"target":{
						"node":18,
						"path":"translation"
					}
				},
				{
					"sampler":64,
					"target":{
						"node":18,
						"path":"rotation"
					}
				},
				{
					"sampler":65,
					"target":{
						"node":18,
						"path":"scale"
					}
				},
				{
					"sampler":66,
					"target":{
						"node":17,
						"path":"translation"
					}
				},
				{
					"sampler":67,
					"target":{
						"node":17,
						"path":"rotation"
					}
				},
				{
					"sampler":68,
					"target":{
						"node":17,
						"path":"scale"
					}
				},
				{
					"sampler":69,
					"target":{
						"node":27,
						"path":"translation"
					}
				},
				{
					"sampler":70,
					"target":{
						"node":27,
						"path":"rotation"
					}
				},
				{
					"sampler":71,
					"target":{
						"node":27,
						"path":"scale"
					}
				},
				{
					"sampler":72,
					"target":{
						"node":26,
						"path":"translation"
					}
				},
				{
					"sampler":73,
					"target":{
						"node":26,
						"path":"rotation"
					}
				},
				{
					"sampler":74,
					"target":{
						"node":26,
						"path":"scale"
					}
				},
				{
					"sampler":75,
					"target":{
						"node":25,
						"path":"translation"
					}
				},
				{
					"sampler":76,
					"target":{
						"node":25,
						"path":"rotation"
					}
				},
				{
					"sampler":77,
					"target":{
						"node":25,
						"path":"scale"
					}
				},
				{
					"sampler":78,
					"target":{
						"node":24,
						"path":"translation"
					}
				},
				{
					"sampler":79,
					"target":{
						"node":24,
						"path":"rotation"
					}
				},
				{
					"sampler":80,
					"target":{
						"node":24,
						"path":"scale"
					}
				},
				{
					"sampler":81,
					"target":{
						"node":23,
						"path":"translation"
					}
				},
				{
					"sampler":82,
					"target":{
						"node":23,
						"path":"rotation"
					}
				},
				{
					"sampler":83,
					"target":{
						"node":23,
						"path":"scale"
					}
				},
				{
					"sampler":84,
					"target":{
						"node":32,
						"path":"translation"
					}
				},
				{
					"sampler":85,
					"target":{
						"node":32,
						"path":"rotation"
					}
				},
				{
					"sampler":86,
					"target":{
						"node":32,
						"path":"scale"
					}
				},
				{
					"sampler":87,
					"target":{
						"node":31,
						"path":"translation"
					}
				},
				{
					"sampler":88,
					"target":{
						"node":31,
						"path":"rotation"
					}
				},
				{
					"sampler":89,
					"target":{
						"node":31,
						"path":"scale"
					}
				},
				{
					"sampler":90,
					"target":{
						"node":30,
						"path":"translation"
					}
				},
				{
					"sampler":91,
					"target":{
						"node":30,
						"path":"rotation"
					}
				},
				{
					"sampler":92,
					"target":{
						"node":30,
						"path":"scale"
					}
				},
				{
					"sampler":93,
					"target":{
						"node":29,
						"path":"translation"
					}
				},
				{
					"sampler":94,
					"target":{
						"node":29,
						"path":"rotation"
					}
				},
				{
					"sampler":95,
					"target":{
						"node":29,
						"path":"scale"
					}
				},
				{
					"sampler":96,
					"target":{
						"node":28,
						"path":"translation"
					}
				},
				{
					"sampler":97,
					"target":{
						"node":28,
						"path":"rotation"
					}
				},
				{
					"sampler":98,
					"target":{
						"node":28,
						"path":"scale"
					}
				}
			],
			"name":"idle",
			"samplers":[
				{
					"input":7,
					"interpolation":"STEP",
					"output":8
				},
				{
					"input":7,
					"interpolation":"STEP",
					"output":9
				},
				{
					"input":7,
					"interpolation":"STEP",
					"output":10
				},
				{
					"input":7,
					"interpolation":"STEP",
					"output":11
				},
				{
					"input":7,
					"interpolation":"STEP",
					"output":12
				},
				{
					"input":7,
					"interpolation":"STEP",
					"output":10
				},
				{
					"input":7,
					"interpolation":"STEP",
					"output":13
				},
				{
					"input":7,
					"interpolation":"STEP",
					"output":14
				},
				{
					"input":7,
					"interpolation":"STEP",
					"output":15
				},
				{
					"input":7,
					"interpolation":"STEP",
					"output":16
				},
				{
					"input":7,
					"interpolation":"STEP",
					"output":17
				},
				{
					"input":7,
					"interpolation":"STEP",
					"output":15
				},
				{
					"input":7,
					"interpolation":"STEP",
					"output":18
				},
				{
					"input":7,
					"interpolation":"STEP",
					"output":19
				},
				{
					"input":7,
					"interpolation":"STEP",
					"output":15
				},
				{
					"input":7,
					"interpolation":"STEP",
					"output":20
				},
				{
					"input":7,
					"interpolation":"STEP",
					"output":21
				},
				{
					"input":7,
					"interpolation":"STEP",
					"output":22
				},
				{
					"input":7,
					"interpolation":"STEP",
					"output":23
				},
				{
					"input":7,
					"interpolation":"STEP",
					"output":24
				},
				{
					"input":7,
					"interpolation":"STEP",
					"output":25
				},
				{
					"input":7,
					"interpolation":"STEP",
					"output":26
				},
				{
					"input":7,
					"interpolation":"LINEAR",
					"output":27
				},
				{
					"input":7,
					"interpolation":"STEP",
					"output":28
				},
				{
					"input":7,
					"interpolation":"LINEAR",
					"output":29
				},
				{
					"input":7,
					"interpolation":"LINEAR",
					"output":30
				},
				{
					"input":7,
					"interpolation":"STEP",
					"output":31
				},
				{
					"input":7,
					"interpolation":"LINEAR",
					"output":32
				},
				{
					"input":7,
					"interpolation":"LINEAR",
					"output":33
				},
				{
					"input":7,
					"interpolation":"STEP",
					"output":34
				},
				{
					"input":7,
					"interpolation":"LINEAR",
					"output":35
				},
				{
					"input":7,
					"interpolation":"LINEAR",
					"output":36
				},
				{
					"input":7,
					"interpolation":"STEP",
					"output":15
				},
				{
					"input":7,
					"interpolation":"STEP",
					"output":37
				},
				{
					"input":7,
					"interpolation":"STEP",
					"output":38
				},
				{
					"input":7,
					"interpolation":"STEP",
					"output":22
				},
				{
					"input":7,
					"interpolation":"STEP",
					"output":39
				},
				{
					"input":7,
					"interpolation":"STEP",
					"output":40
				},
				{
					"input":7,
					"interpolation":"STEP",
					"output":15
				},
				{
					"input":7,
					"interpolation":"STEP",
					"output":41
				},
				{
					"input":7,
					"interpolation":"STEP",
					"output":42
				},
				{
					"input":7,
					"interpolation":"STEP",
					"output":43
				},
				{
					"input":7,
					"interpolation":"STEP",
					"output":44
				},
				{
					"input":7,
					"interpolation":"STEP",
					"output":45
				},
				{
					"input":7,
					"interpolation":"STEP",
					"output":15
				},
				{
					"input":7,
					"interpolation":"STEP",
					"output":46
				},
				{
					"input":7,
					"interpolation":"STEP",
					"output":47
				},
				{
					"input":7,
					"interpolation":"STEP",
					"output":48
				},
				{
					"input":7,
					"interpolation":"STEP",
					"output":49
				},
				{
					"input":7,
					"interpolation":"STEP",
					"output":50
				},
				{
					"input":7,
					"interpolation":"STEP",
					"output":51
				},
				{
					"input":7,
					"interpolation":"STEP",
					"output":52
				},
				{
					"input":7,
					"interpolation":"STEP",
					"output":38
				},
				{
					"input":7,
					"interpolation":"STEP",
					"output":22
				},
				{
					"input":7,
					"interpolation":"STEP",
					"output":39
				},
				{
					"input":7,
					"interpolation":"STEP",
					"output":40
				},
				{
					"input":7,
					"interpolation":"STEP",
					"output":15
				},
				{
					"input":7,
					"interpolation":"STEP",
					"output":53
				},
				{
					"input":7,
					"interpolation":"STEP",
					"output":42
				},
				{
					"input":7,
					"interpolation":"STEP",
					"output":43
				},
				{
					"input":7,
					"interpolation":"STEP",
					"output":54
				},
				{
					"input":7,
					"interpolation":"STEP",
					"output":45
				},
				{
					"input":7,
					"interpolation":"STEP",
					"output":15
				},
				{
					"input":7,
					"interpolation":"STEP",
					"output":55
				},
				{
					"input":7,
					"interpolation":"STEP",
					"output":47
				},
				{
					"input":7,
					"interpolation":"STEP",
					"output":48
				},
				{
					"input":7,
					"interpolation":"STEP",
					"output":56
				},
				{
					"input":7,
					"interpolation":"STEP",
					"output":50
				},
				{
					"input":7,
					"interpolation":"STEP",
					"output":51
				},
				{
					"input":7,
					"interpolation":"STEP",
					"output":57
				},
				{
					"input":7,
					"interpolation":"STEP",
					"output":58
				},
				{
					"input":7,
					"interpolation":"STEP",
					"output":59
				},
				{
					"input":7,
					"interpolation":"STEP",
					"output":60
				},
				{
					"input":7,
					"interpolation":"STEP",
					"output":61
				},
				{
					"input":7,
					"interpolation":"STEP",
					"output":15
				},
				{
					"input":7,
					"interpolation":"STEP",
					"output":62
				},
				{
					"input":7,
					"interpolation":"STEP",
					"output":63
				},
				{
					"input":7,
					"interpolation":"STEP",
					"output":64
				},
				{
					"input":7,
					"interpolation":"STEP",
					"output":65
				},
				{
					"input":7,
					"interpolation":"STEP",
					"output":66
				},
				{
					"input":7,
					"interpolation":"STEP",
					"output":67
				},
				{
					"input":7,
					"interpolation":"STEP",
					"output":68
				},
				{
					"input":7,
					"interpolation":"STEP",
					"output":69
				},
				{
					"input":7,
					"interpolation":"STEP",
					"output":70
				},
				{
					"input":7,
					"interpolation":"STEP",
					"output":71
				},
				{
					"input":7,
					"interpolation":"STEP",
					"output":72
				},
				{
					"input":7,
					"interpolation":"STEP",
					"output":59
				},
				{
					"input":7,
					"interpolation":"STEP",
					"output":73
				},
				{
					"input":7,
					"interpolation":"STEP",
					"output":74
				},
				{
					"input":7,
					"interpolation":"STEP",
					"output":15
				},
				{
					"input":7,
					"interpolation":"STEP",
					"output":75
				},
				{
					"input":7,
					"interpolation":"STEP",
					"output":76
				},
				{
					"input":7,
					"interpolation":"STEP",
					"output":64
				},
				{
					"input":7,
					"interpolation":"STEP",
					"output":77
				},
				{
					"input":7,
					"interpolation":"STEP",
					"output":78
				},
				{
					"input":7,
					"interpolation":"STEP",
					"output":67
				},
				{
					"input":7,
					"interpolation":"STEP",
					"output":79
				},
				{
					"input":7,
					"interpolation":"STEP",
					"output":80
				},
				{
					"input":7,
					"interpolation":"STEP",
					"output":70
				}
			]
		}
	],
	"materials":[
		{
			"doubleSided":true,
			"name":"mannequin",
			"pbrMetallicRoughness":{
				"baseColorFactor":[
					0.7200000286102295,
					0.7200000286102295,
					0.75,
					1
				],
				"metallicFactor":0,
				"roughnessFactor":0.8999999761581421
			}
		}
	],
	"meshes":[
		{
			"name":"fighter_a_body",
			"primitives":[
				{
					"attributes":{
						"POSITION":0,
						"NORMAL":1,
						"TEXCOORD_0":2,
						"JOINTS_0":3,
						"WEIGHTS_0":4
					},
					"indices":5,
					"material":0
				}
			]
		}
	],
	"skins":[
		{
			"inverseBindMatrices":6,
			"joints":[
				0,
				1,
				2,
				3,
				10,
				9,
				8,
				7,
				6,
				5,
				4,
				16,
				15,
				14,
				13,
				12,
				11,
				22,
				21,
				20,
				19,
				18,
				17,
				27,
				26,
				25,
				24,
				23,
				32,
				31,
				30,
				29,
				28
			],
			"name":"fighter_a_rig"
		}
	],
	"accessors":[
		{
			"bufferView":0,
			"componentType":5126,
			"count":2957,
			"max":[
				22.691627502441406,
				60,
				5.000001430511475
			],
			"min":[
				-22.691627502441406,
				0,
				-5.159085273742676
			],
			"type":"VEC3"
		},
		{
			"bufferView":1,
			"componentType":5126,
			"count":2957,
			"type":"VEC3"
		},
		{
			"bufferView":2,
			"componentType":5126,
			"count":2957,
			"type":"VEC2"
		},
		{
			"bufferView":3,
			"componentType":5121,
			"count":2957,
			"type":"VEC4"
		},
		{
			"bufferView":4,
			"componentType":5126,
			"count":2957,
			"type":"VEC4"
		},
		{
			"bufferView":5,
			"componentType":5123,
			"count":5220,
			"type":"SCALAR"
		},
		{
			"bufferView":6,
			"componentType":5126,
			"count":33,
			"type":"MAT4"
		},
		{
			"bufferView":7,
			"componentType":5126,
			"count":2,
			"max":[
				0.016666666666666666
			],
			"min":[
				0
			],
			"type":"SCALAR"
		},
		{
			"bufferView":8,
			"componentType":5126,
			"count":2,
			"type":"VEC3"
		},
		{
			"bufferView":9,
			"componentType":5126,
			"count":2,
			"type":"VEC4"
		},
		{
			"bufferView":10,
			"componentType":5126,
			"count":2,
			"type":"VEC3"
		},
		{
			"bufferView":11,
			"componentType":5126,
			"count":2,
			"type":"VEC3"
		},
		{
			"bufferView":12,
			"componentType":5126,
			"count":2,
			"type":"VEC4"
		},
		{
			"bufferView":13,
			"componentType":5126,
			"count":2,
			"type":"VEC3"
		},
		{
			"bufferView":14,
			"componentType":5126,
			"count":2,
			"type":"VEC4"
		},
		{
			"bufferView":15,
			"componentType":5126,
			"count":2,
			"type":"VEC3"
		},
		{
			"bufferView":16,
			"componentType":5126,
			"count":2,
			"type":"VEC3"
		},
		{
			"bufferView":17,
			"componentType":5126,
			"count":2,
			"type":"VEC4"
		},
		{
			"bufferView":18,
			"componentType":5126,
			"count":2,
			"type":"VEC3"
		},
		{
			"bufferView":19,
			"componentType":5126,
			"count":2,
			"type":"VEC4"
		},
		{
			"bufferView":20,
			"componentType":5126,
			"count":2,
			"type":"VEC3"
		},
		{
			"bufferView":21,
			"componentType":5126,
			"count":2,
			"type":"VEC4"
		},
		{
			"bufferView":22,
			"componentType":5126,
			"count":2,
			"type":"VEC3"
		},
		{
			"bufferView":23,
			"componentType":5126,
			"count":2,
			"type":"VEC3"
		},
		{
			"bufferView":24,
			"componentType":5126,
			"count":2,
			"type":"VEC4"
		},
		{
			"bufferView":25,
			"componentType":5126,
			"count":2,
			"type":"VEC3"
		},
		{
			"bufferView":26,
			"componentType":5126,
			"count":2,
			"type":"VEC3"
		},
		{
			"bufferView":27,
			"componentType":5126,
			"count":2,
			"type":"VEC4"
		},
		{
			"bufferView":28,
			"componentType":5126,
			"count":2,
			"type":"VEC3"
		},
		{
			"bufferView":29,
			"componentType":5126,
			"count":2,
			"type":"VEC3"
		},
		{
			"bufferView":30,
			"componentType":5126,
			"count":2,
			"type":"VEC4"
		},
		{
			"bufferView":31,
			"componentType":5126,
			"count":2,
			"type":"VEC3"
		},
		{
			"bufferView":32,
			"componentType":5126,
			"count":2,
			"type":"VEC3"
		},
		{
			"bufferView":33,
			"componentType":5126,
			"count":2,
			"type":"VEC4"
		},
		{
			"bufferView":34,
			"componentType":5126,
			"count":2,
			"type":"VEC3"
		},
		{
			"bufferView":35,
			"componentType":5126,
			"count":2,
			"type":"VEC3"
		},
		{
			"bufferView":36,
			"componentType":5126,
			"count":2,
			"type":"VEC4"
		},
		{
			"bufferView":37,
			"componentType":5126,
			"count":2,
			"type":"VEC3"
		},
		{
			"bufferView":38,
			"componentType":5126,
			"count":2,
			"type":"VEC4"
		},
		{
			"bufferView":39,
			"componentType":5126,
			"count":2,
			"type":"VEC3"
		},
		{
			"bufferView":40,
			"componentType":5126,
			"count":2,
			"type":"VEC4"
		},
		{
			"bufferView":41,
			"componentType":5126,
			"count":2,
			"type":"VEC3"
		},
		{
			"bufferView":42,
			"componentType":5126,
			"count":2,
			"type":"VEC4"
		},
		{
			"bufferView":43,
			"componentType":5126,
			"count":2,
			"type":"VEC3"
		},
		{
			"bufferView":44,
			"componentType":5126,
			"count":2,
			"type":"VEC3"
		},
		{
			"bufferView":45,
			"componentType":5126,
			"count":2,
			"type":"VEC4"
		},
		{
			"bufferView":46,
			"componentType":5126,
			"count":2,
			"type":"VEC3"
		},
		{
			"bufferView":47,
			"componentType":5126,
			"count":2,
			"type":"VEC4"
		},
		{
			"bufferView":48,
			"componentType":5126,
			"count":2,
			"type":"VEC3"
		},
		{
			"bufferView":49,
			"componentType":5126,
			"count":2,
			"type":"VEC3"
		},
		{
			"bufferView":50,
			"componentType":5126,
			"count":2,
			"type":"VEC4"
		},
		{
			"bufferView":51,
			"componentType":5126,
			"count":2,
			"type":"VEC3"
		},
		{
			"bufferView":52,
			"componentType":5126,
			"count":2,
			"type":"VEC3"
		},
		{
			"bufferView":53,
			"componentType":5126,
			"count":2,
			"type":"VEC3"
		},
		{
			"bufferView":54,
			"componentType":5126,
			"count":2,
			"type":"VEC3"
		},
		{
			"bufferView":55,
			"componentType":5126,
			"count":2,
			"type":"VEC3"
		},
		{
			"bufferView":56,
			"componentType":5126,
			"count":2,
			"type":"VEC3"
		},
		{
			"bufferView":57,
			"componentType":5126,
			"count":2,
			"type":"VEC3"
		},
		{
			"bufferView":58,
			"componentType":5126,
			"count":2,
			"type":"VEC4"
		},
		{
			"bufferView":59,
			"componentType":5126,
			"count":2,
			"type":"VEC3"
		},
		{
			"bufferView":60,
			"componentType":5126,
			"count":2,
			"type":"VEC3"
		},
		{
			"bufferView":61,
			"componentType":5126,
			"count":2,
			"type":"VEC4"
		},
		{
			"bufferView":62,
			"componentType":5126,
			"count":2,
			"type":"VEC3"
		},
		{
			"bufferView":63,
			"componentType":5126,
			"count":2,
			"type":"VEC4"
		},
		{
			"bufferView":64,
			"componentType":5126,
			"count":2,
			"type":"VEC3"
		},
		{
			"bufferView":65,
			"componentType":5126,
			"count":2,
			"type":"VEC3"
		},
		{
			"bufferView":66,
			"componentType":5126,
			"count":2,
			"type":"VEC4"
		},
		{
			"bufferView":67,
			"componentType":5126,
			"count":2,
			"type":"VEC3"
		},
		{
			"bufferView":68,
			"componentType":5126,
			"count":2,
			"type":"VEC3"
		},
		{
			"bufferView":69,
			"componentType":5126,
			"count":2,
			"type":"VEC4"
		},
		{
			"bufferView":70,
			"componentType":5126,
			"count":2,
			"type":"VEC3"
		},
		{
			"bufferView":71,
			"componentType":5126,
			"count":2,
			"type":"VEC3"
		},
		{
			"bufferView":72,
			"componentType":5126,
			"count":2,
			"type":"VEC4"
		},
		{
			"bufferView":73,
			"componentType":5126,
			"count":2,
			"type":"VEC3"
		},
		{
			"bufferView":74,
			"componentType":5126,
			"count":2,
			"type":"VEC4"
		},
		{
			"bufferView":75,
			"componentType":5126,
			"count":2,
			"type":"VEC3"
		},
		{
			"bufferView":76,
			"componentType":5126,
			"count":2,
			"type":"VEC4"
		},
		{
			"bufferView":77,
			"componentType":5126,
			"count":2,
			"type":"VEC3"
		},
		{
			"bufferView":78,
			"componentType":5126,
			"count":2,
			"type":"VEC4"
		},
		{
			"bufferView":79,
			"componentType":5126,
			"count":2,
			"type":"VEC3"
		},
		{
			"bufferView":80,
			"componentType":5126,
			"count":2,
			"type":"VEC4"
		}
	],
	"bufferViews":[
		{
			"buffer":0,
			"byteLength":35484,
			"byteOffset":0,
			"target":34962
		},
		{
			"buffer":0,
			"byteLength":35484,
			"byteOffset":35484,
			"target":34962
		},
		{
			"buffer":0,
			"byteLength":23656,
			"byteOffset":70968,
			"target":34962
		},
		{
			"buffer":0,
			"byteLength":11828,
			"byteOffset":94624,
			"target":34962
		},
		{
			"buffer":0,
			"byteLength":47312,
			"byteOffset":106452,
			"target":34962
		},
		{
			"buffer":0,
			"byteLength":10440,
			"byteOffset":153764,
			"target":34963
		},
		{
			"buffer":0,
			"byteLength":2112,
			"byteOffset":164204
		},
		{
			"buffer":0,
			"byteLength":8,
			"byteOffset":166316
		},
		{
			"buffer":0,
			"byteLength":24,
			"byteOffset":166324
		},
		{
			"buffer":0,
			"byteLength":32,
			"byteOffset":166348
		},
		{
			"buffer":0,
			"byteLength":24,
			"byteOffset":166380
		},
		{
			"buffer":0,
			"byteLength":24,
			"byteOffset":166404
		},
		{
			"buffer":0,
			"byteLength":32,
			"byteOffset":166428
		},
		{
			"buffer":0,
			"byteLength":24,
			"byteOffset":166460
		},
		{
			"buffer":0,
			"byteLength":32,
			"byteOffset":166484
		},
		{
			"buffer":0,
			"byteLength":24,
			"byteOffset":166516
		},
		{
			"buffer":0,
			"byteLength":24,
			"byteOffset":166540
		},
		{
			"buffer":0,
			"byteLength":32,
			"byteOffset":166564
		},
		{
			"buffer":0,
			"byteLength":24,
			"byteOffset":166596
		},
		{
			"buffer":0,
			"byteLength":32,
			"byteOffset":166620
		},
		{
			"buffer":0,
			"byteLength":24,
			"byteOffset":166652
		},
		{
			"buffer":0,
			"byteLength":32,
			"byteOffset":166676
		},
		{
			"buffer":0,
			"byteLength":24,
			"byteOffset":166708
		},
		{
			"buffer":0,
			"byteLength":24,
			"byteOffset":166732
		},
		{
			"buffer":0,
			"byteLength":32,
			"byteOffset":166756
		},
		{
			"buffer":0,
			"byteLength":24,
			"byteOffset":166788
		},
		{
			"buffer":0,
			"byteLength":24,
			"byteOffset":166812
		},
		{
			"buffer":0,
			"byteLength":32,
			"byteOffset":166836
		},
		{
			"buffer":0,
			"byteLength":24,
			"byteOffset":166868
		},
		{
			"buffer":0,
			"byteLength":24,
			"byteOffset":166892
		},
		{
			"buffer":0,
			"byteLength":32,
			"byteOffset":166916
		},
		{
			"buffer":0,
			"byteLength":24,
			"byteOffset":166948
		},
		{
			"buffer":0,
			"byteLength":24,
			"byteOffset":166972
		},
		{
			"buffer":0,
			"byteLength":32,
			"byteOffset":166996
		},
		{
			"buffer":0,
			"byteLength":24,
			"byteOffset":167028
		},
		{
			"buffer":0,
			"byteLength":24,
			"byteOffset":167052
		},
		{
			"buffer":0,
			"byteLength":32,
			"byteOffset":167076
		},
		{
			"buffer":0,
			"byteLength":24,
			"byteOffset":167108
		},
		{
			"buffer":0,
			"byteLength":32,
			"byteOffset":167132
		},
		{
			"buffer":0,
			"byteLength":24,
			"byteOffset":167164
		},
		{
			"buffer":0,
			"byteLength":32,
			"byteOffset":167188
		},
		{
			"buffer":0,
			"byteLength":24,
			"byteOffset":167220
		},
		{
			"buffer":0,
			"byteLength":32,
			"byteOffset":167244
		},
		{
			"buffer":0,
			"byteLength":24,
			"byteOffset":167276
		},
		{
			"buffer":0,
			"byteLength":24,
			"byteOffset":167300
		},
		{
			"buffer":0,
			"byteLength":32,
			"byteOffset":167324
		},
		{
			"buffer":0,
			"byteLength":24,
			"byteOffset":167356
		},
		{
			"buffer":0,
			"byteLength":32,
			"byteOffset":167380
		},
		{
			"buffer":0,
			"byteLength":24,
			"byteOffset":167412
		},
		{
			"buffer":0,
			"byteLength":24,
			"byteOffset":167436
		},
		{
			"buffer":0,
			"byteLength":32,
			"byteOffset":167460
		},
		{
			"buffer":0,
			"byteLength":24,
			"byteOffset":167492
		},
		{
			"buffer":0,
			"byteLength":24,
			"byteOffset":167516
		},
		{
			"buffer":0,
			"byteLength":24,
			"byteOffset":167540
		},
		{
			"buffer":0,
			"byteLength":24,
			"byteOffset":167564
		},
		{
			"buffer":0,
			"byteLength":24,
			"byteOffset":167588
		},
		{
			"buffer":0,
			"byteLength":24,
			"byteOffset":167612
		},
		{
			"buffer":0,
			"byteLength":24,
			"byteOffset":167636
		},
		{
			"buffer":0,
			"byteLength":32,
			"byteOffset":167660
		},
		{
			"buffer":0,
			"byteLength":24,
			"byteOffset":167692
		},
		{
			"buffer":0,
			"byteLength":24,
			"byteOffset":167716
		},
		{
			"buffer":0,
			"byteLength":32,
			"byteOffset":167740
		},
		{
			"buffer":0,
			"byteLength":24,
			"byteOffset":167772
		},
		{
			"buffer":0,
			"byteLength":32,
			"byteOffset":167796
		},
		{
			"buffer":0,
			"byteLength":24,
			"byteOffset":167828
		},
		{
			"buffer":0,
			"byteLength":24,
			"byteOffset":167852
		},
		{
			"buffer":0,
			"byteLength":32,
			"byteOffset":167876
		},
		{
			"buffer":0,
			"byteLength":24,
			"byteOffset":167908
		},
		{
			"buffer":0,
			"byteLength":24,
			"byteOffset":167932
		},
		{
			"buffer":0,
			"byteLength":32,
			"byteOffset":167956
		},
		{
			"buffer":0,
			"byteLength":24,
			"byteOffset":167988
		},
		{
			"buffer":0,
			"byteLength":24,
			"byteOffset":168012
		},
		{
			"buffer":0,
			"byteLength":32,
			"byteOffset":168036
		},
		{
			"buffer":0,
			"byteLength":24,
			"byteOffset":168068
		},
		{
			"buffer":0,
			"byteLength":32,
			"byteOffset":168092
		},
		{
			"buffer":0,
			"byteLength":24,
			"byteOffset":168124
		},
		{
			"buffer":0,
			"byteLength":32,
			"byteOffset":168148
		},
		{
			"buffer":0,
			"byteLength":24,
			"byteOffset":168180
		},
		{
			"buffer":0,
			"byteLength":32,
			"byteOffset":168204
		},
		{
			"buffer":0,
			"byteLength":24,
			"byteOffset":168236
		},
		{
			"buffer":0,
			"byteLength":32,
			"byteOffset":168260
		}
	],
	"buffers":[
		{
			"byteLength":168292,
			"uri":"fighter_a.bin"
		}
	]
}
