{
	"asset":{
		"generator":"Khronos glTF Blender I/O v5.2.40",
		"version":"2.0"
	},
	"scene":0,
	"scenes":[
		{
			"name":"Scene",
			"nodes":[
				0,
				1,
				2,
				3,
				4,
				5
			]
		}
	],
	"nodes":[
		{
			"mesh":0,
			"name":"stage_centre_line"
		},
		{
			"mesh":1,
			"name":"stage_floor"
		},
		{
			"mesh":2,
			"name":"stage_grid_heavy"
		},
		{
			"mesh":3,
			"name":"stage_grid_light"
		},
		{
			"mesh":4,
			"name":"stage_plane_mark"
		},
		{
			"mesh":5,
			"name":"stage_wall"
		}
	],
	"materials":[
		{
			"doubleSided":true,
			"name":"centre_line",
			"pbrMetallicRoughness":{
				"baseColorFactor":[
					0.8500000238418579,
					0.15000000596046448,
					0.11999999731779099,
					1
				],
				"metallicFactor":0,
				"roughnessFactor":0.8999999761581421
			}
		},
		{
			"doubleSided":true,
			"name":"floor",
			"pbrMetallicRoughness":{
				"baseColorFactor":[
					0.6200000047683716,
					0.6399999856948853,
					0.6600000262260437,
					1
				],
				"metallicFactor":0,
				"roughnessFactor":0.8999999761581421
			}
		},
		{
			"doubleSided":true,
			"name":"grid_heavy",
			"pbrMetallicRoughness":{
				"baseColorFactor":[
					0.23999999463558197,
					0.25999999046325684,
					0.30000001192092896,
					1
				],
				"metallicFactor":0,
				"roughnessFactor":0.8999999761581421
			}
		},
		{
			"doubleSided":true,
			"name":"grid_light",
			"pbrMetallicRoughness":{
				"baseColorFactor":[
					0.46000000834465027,
					0.47999998927116394,
					0.5099999904632568,
					1
				],
				"metallicFactor":0,
				"roughnessFactor":0.8999999761581421
			}
		},
		{
			"doubleSided":true,
			"name":"plane_mark",
			"pbrMetallicRoughness":{
				"baseColorFactor":[
					0.20000000298023224,
					0.44999998807907104,
					0.8999999761581421,
					1
				],
				"metallicFactor":0,
				"roughnessFactor":0.8999999761581421
			}
		},
		{
			"doubleSided":true,
			"name":"wall",
			"pbrMetallicRoughness":{
				"baseColorFactor":[
					0.7200000286102295,
					0.7400000095367432,
					0.7799999713897705,
					1
				],
				"metallicFactor":0,
				"roughnessFactor":0.8999999761581421
			}
		}
	],
	"meshes":[
		{
			"name":"stage_centre_line",
			"primitives":[
				{
					"attributes":{
						"POSITION":0,
						"NORMAL":1
					},
					"indices":2,
					"material":0
				}
			]
		},
		{
			"name":"stage_floor",
			"primitives":[
				{
					"attributes":{
						"POSITION":3,
						"NORMAL":4
					},
					"indices":2,
					"material":1
				}
			]
		},
		{
			"name":"stage_grid_heavy",
			"primitives":[
				{
					"attributes":{
						"POSITION":5,
						"NORMAL":6
					},
					"indices":7,
					"material":2
				}
			]
		},
		{
			"name":"stage_grid_light",
			"primitives":[
				{
					"attributes":{
						"POSITION":8,
						"NORMAL":9
					},
					"indices":10,
					"material":3
				}
			]
		},
		{
			"name":"stage_plane_mark",
			"primitives":[
				{
					"attributes":{
						"POSITION":11,
						"NORMAL":12
					},
					"indices":13,
					"material":4
				}
			]
		},
		{
			"name":"stage_wall",
			"primitives":[
				{
					"attributes":{
						"POSITION":14,
						"NORMAL":15
					},
					"indices":16,
					"material":5
				}
			]
		}
	],
	"accessors":[
		{
			"bufferView":0,
			"componentType":5126,
			"count":4,
			"max":[
				1,
				0.10000000149011612,
				60
			],
			"min":[
				-1,
				0.10000000149011612,
				-240
			],
			"type":"VEC3"
		},
		{
			"bufferView":1,
			"componentType":5126,
			"count":4,
			"type":"VEC3"
		},
		{
			"bufferView":2,
			"componentType":5123,
			"count":6,
			"type":"SCALAR"
		},
		{
			"bufferView":3,
			"componentType":5126,
			"count":4,
			"max":[
				480,
				0,
				60
			],
			"min":[
				-480,
				0,
				-240
			],
			"type":"VEC3"
		},
		{
			"bufferView":4,
			"componentType":5126,
			"count":4,
			"type":"VEC3"
		},
		{
			"bufferView":5,
			"componentType":5126,
			"count":140,
			"max":[
				480,
				200.75,
				60
			],
			"min":[
				-480,
				-0.75,
				-240
			],
			"type":"VEC3"
		},
		{
			"bufferView":6,
			"componentType":5126,
			"count":140,
			"type":"VEC3"
		},
		{
			"bufferView":7,
			"componentType":5123,
			"count":210,
			"type":"SCALAR"
		},
		{
			"bufferView":8,
			"componentType":5126,
			"count":572,
			"max":[
				480.25,
				200,
				60.25
			],
			"min":[
				-480.25,
				0,
				-240.25
			],
			"type":"VEC3"
		},
		{
			"bufferView":9,
			"componentType":5126,
			"count":572,
			"type":"VEC3"
		},
		{
			"bufferView":10,
			"componentType":5123,
			"count":858,
			"type":"SCALAR"
		},
		{
			"bufferView":11,
			"componentType":5126,
			"count":36,
			"max":[
				404,
				0.15000000596046448,
				4
			],
			"min":[
				-404,
				0.15000000596046448,
				-4
			],
			"type":"VEC3"
		},
		{
			"bufferView":12,
			"componentType":5126,
			"count":36,
			"type":"VEC3"
		},
		{
			"bufferView":13,
			"componentType":5123,
			"count":54,
			"type":"SCALAR"
		},
		{
			"bufferView":14,
			"componentType":5126,
			"count":12,
			"max":[
				480,
				200,
				60
			],
			"min":[
				-480,
				0,
				-240
			],
			"type":"VEC3"
		},
		{
			"bufferView":15,
			"componentType":5126,
			"count":12,
			"type":"VEC3"
		},
		{
			"bufferView":16,
			"componentType":5123,
			"count":18,
			"type":"SCALAR"
		}
	],
	"bufferViews":[
		{
			"buffer":0,
			"byteLength":48,
			"byteOffset":0,
			"target":34962
		},
		{
			"buffer":0,
			"byteLength":48,
			"byteOffset":48,
			"target":34962
		},
		{
			"buffer":0,
			"byteLength":12,
			"byteOffset":96,
			"target":34963
		},
		{
			"buffer":0,
			"byteLength":48,
			"byteOffset":108,
			"target":34962
		},
		{
			"buffer":0,
			"byteLength":48,
			"byteOffset":156,
			"target":34962
		},
		{
			"buffer":0,
			"byteLength":1680,
			"byteOffset":204,
			"target":34962
		},
		{
			"buffer":0,
			"byteLength":1680,
			"byteOffset":1884,
			"target":34962
		},
		{
			"buffer":0,
			"byteLength":420,
			"byteOffset":3564,
			"target":34963
		},
		{
			"buffer":0,
			"byteLength":6864,
			"byteOffset":3984,
			"target":34962
		},
		{
			"buffer":0,
			"byteLength":6864,
			"byteOffset":10848,
			"target":34962
		},
		{
			"buffer":0,
			"byteLength":1716,
			"byteOffset":17712,
			"target":34963
		},
		{
			"buffer":0,
			"byteLength":432,
			"byteOffset":19428,
			"target":34962
		},
		{
			"buffer":0,
			"byteLength":432,
			"byteOffset":19860,
			"target":34962
		},
		{
			"buffer":0,
			"byteLength":108,
			"byteOffset":20292,
			"target":34963
		},
		{
			"buffer":0,
			"byteLength":144,
			"byteOffset":20400,
			"target":34962
		},
		{
			"buffer":0,
			"byteLength":144,
			"byteOffset":20544,
			"target":34962
		},
		{
			"buffer":0,
			"byteLength":36,
			"byteOffset":20688,
			"target":34963
		}
	],
	"buffers":[
		{
			"byteLength":20724,
			"uri":"training_room.bin"
		}
	]
}
